<?xml version="1.0"?>
<svg xmlns="http://www.w3.org/2000/svg" height="512px" viewBox="0 0 512 512" width="512px" class=""><g><path d="m112 80h96v30h-96zm0 0" data-original="#000000" class="active-path" data-old_color="#007bff" fill="#ffffff"/><path d="m70 140h180v30h-180zm0 0" data-original="#000000" class="active-path" data-old_color="#007bff" fill="#007bff"/><path d="m70 200h180v30h-180zm0 0" data-original="#000000" class="active-path" data-old_color="#007bff" fill="#007bff"/><path d="m512 321v-130h-50v-50h30v-90h-30v-51h-30v51h-30v90h30v50h-50v50h-62v-241h-320v460h75v52l45-24 45 24v-52h96.214844l58.785156-58.785156v-130.214844h62v50h50v50h-30v90h30v51h30v-51h30v-90h-30v-50zm-80-240h30v30h-30zm-312 294c-16.542969 0-30-13.457031-30-30s13.457031-30 30-30 30 13.457031 30 30-13.457031 30-30 30zm0 79-15 8v-58.898438c4.796875 1.238282 9.820312 1.898438 15 1.898438s10.203125-.660156 15-1.898438v58.898438zm45-69.378906c9.324219-10.574219 15-24.445313 15-39.621094 0-33.085938-26.914062-60-60-60s-60 26.914062-60 60c0 15.175781 5.675781 29.046875 15 39.621094v45.378906h-45v-400h260v330h-70v70h-55zm85 44.164062v-38.785156h38.785156zm212 2.214844h-30v-30h30zm-50-210h70v70h-70zm0 0" data-original="#000000" class="active-path" data-old_color="#007bff" fill="#007bff"/><script xmlns="" class="active-path" style="fill:#007BFF" data-old_color="#007bff"/></g> </svg>
